<svg xmlns="http://www.w3.org/2000/svg" viewBox="0 0 421.29 359.63"><defs><style>.cls-1{fill:#012622;}.cls-2{fill:#00bd9d;}</style></defs><g id="Layer_2" data-name="Layer 2"><g id="Layer_1-2" data-name="Layer 1"><ellipse class="cls-1" cx="294.35" cy="144.1" rx="20.04" ry="26.72"/><ellipse class="cls-1" cx="134.04" cy="144.1" rx="20.04" ry="26.72"/><path class="cls-2" d="M285,3.16c-32.46,8-56.38,27.65-73.08,56.78-1.47-.54-1.87-.54-2-.8-2.14-3.08-4.14-6.28-6.28-9.36C178.26,14.51,144.32-3.65,100.64,1,54.15,6,21.82,31.21,7,75.57c-14,42-6.15,82.56,16.56,119,43.69,69.87,104.34,122.11,176.22,161.79,8.15,4.4,14.56,4.27,22.84-.14C288.07,321,342.05,272.62,386.53,213.44c23.12-30.86,35.27-65.73,34.74-104.87C420.33,39,352.73-13.67,285,3.16Zm9.35,167.66c-11.09,0-20-12-20-26.72s8.95-26.72,20-26.72,20,12,20,26.72S305.44,170.82,294.35,170.82Zm-160.31,0c-11.09,0-20-12-20-26.72s9-26.72,20-26.72,20,12,20,26.72S145.13,170.82,134,170.82Z"/><ellipse class="cls-2" cx="134.04" cy="144.1" rx="20.04" ry="26.72"/><ellipse class="cls-2" cx="294.35" cy="144.1" rx="20.04" ry="26.72"/><ellipse class="cls-1" cx="134.04" cy="144.1" rx="20.04" ry="26.72"/><ellipse class="cls-1" cx="294.35" cy="144.1" rx="20.04" ry="26.72"/><path class="cls-1" d="M214.19,297.74c-80.88,0-92.78-54.78-93.25-57.11l26.16-5.43c.34,1.46,8.93,35.82,67.09,35.82Z"/></g></g></svg>